<svg id="Capa_1" data-name="Capa 1" xmlns="http://www.w3.org/2000/svg" viewBox="0 0 1240.96 481.94"><defs><style>.cls-1{fill:#fff;}</style></defs><path class="cls-1" d="M237.17,184.54a.16.16,0,0,0-.15-.15c-17.7-.76-36-1.18-53-.39-4,.19-8.7,1.31-12.79,1.62-4.64.35-8.79.46-13.33,1.74a10.57,10.57,0,0,1-3.11.41.63.63,0,0,1-.61-.63l0-19.31-.06-62.1H60.15a.58.58,0,0,0-.58.59l0,162.9L59.54,310l.12,72.94-.06,23.15a1.15,1.15,0,0,0,1.15,1.15l15.56.06h.36l21.84,0,55.17.07a.55.55,0,0,0,.55-.55l.11-32.44a.77.77,0,0,0-.71-.77,3.1,3.1,0,0,0-1.57.26c-7.14,2.94-14.4,5.64-21.73,8.08a182.27,182.27,0,0,1-25.22,5.91c-9.67,1-15.75,1.83-23.69,1.31l-11.23-1.48a.33.33,0,0,1-.14-.61,2.23,2.23,0,0,1,.62-.25,50.32,50.32,0,0,0,5.89-1.86c1.4-.55,2.93-.87,4.38-1.4a143.31,143.31,0,0,0,18.83-8.37,269.54,269.54,0,0,0,46.72-31.41c4.91-4.05,9.86-8.14,14.47-12.37a362.34,362.34,0,0,0,28.39-28.76c16.89-19.44,32.43-41,41.73-65.2.27-.72.15-.8-.36-.23a19.22,19.22,0,0,0-1.74,2.33,112.34,112.34,0,0,1-7.57,10.71c-3.79,4.55-7.42,9.26-11.51,13.54a223.14,223.14,0,0,1-18.57,17.48,334.62,334.62,0,0,1-36,26.31A318.6,318.6,0,0,1,126,323.62a125.79,125.79,0,0,1-15.1,6.51.46.46,0,0,1-.6-.39c-.78-9.53-.3-18.69.27-28.23a106.45,106.45,0,0,1,1.39-11.43c3.11-15.67,8-29.75,16.73-43.29,3-4.61,6.9-9.4,10.5-14a79.17,79.17,0,0,1,6.63-6.78q3.78-3.56,7.13-6.25a150.38,150.38,0,0,1,45.67-25.13c6.87-2.35,11.43-4,16-5,2.38-.54,4.89-1.58,7.61-1.88,3.34-.37,6.43-1.65,9.64-2.1,1.71-.24,3.41-.43,5.13-.57a.29.29,0,0,0,.24-.3ZM98.78,406.68a.11.11,0,0,1,.08,0,.47.47,0,0,0,.29,0,.4.4,0,0,1-.29,0h-.08Zm28.74-255.95v-.09h0v0A.14.14,0,0,0,127.52,150.73Z"/><path class="cls-1" d="M350.63,106.63a.79.79,0,0,0-.88-.9l-7.26,0-17.54,0-44,0-24.35,0a.61.61,0,0,0-.61.61l.09,34.11L255.83,179a.62.62,0,0,0,.57.62,14.6,14.6,0,0,0,4.23-.35,76.92,76.92,0,0,0,26.94-12,90.33,90.33,0,0,0,7.56-6.36.43.43,0,0,1,.33,0q.09.06.09.27c0,4.76,0,9.22-1.11,14a53.48,53.48,0,0,0-1.28,10.09,12.37,12.37,0,0,1-.83,3.58,36.05,36.05,0,0,0-1.28,6.72c-.39,2.94-1.43,5.78-1.95,8.76-.58,3.27-1.74,6.42-2.22,9.75-1.14,3-1.74,6.08-2.79,9.06-.72,2.09-1.17,4.2-2,6.26s-1.62,4.82-2.13,6.2A256.73,256.73,0,0,1,255.12,286c-2.07,3.24-4.34,6.54-6.82,9.87A226.56,226.56,0,0,1,219,328.62c-4.32,4-9.3,7.87-14,11.74-2.34,1.92-5.15,3.69-7.68,5.65-2.27,1.76-4.77,3.21-7.1,4.94a13.48,13.48,0,0,1-2.73,1.39.17.17,0,0,0,0,.26l.19.18a.75.75,0,0,0,.91.16c2.22-1,4.76-1.49,6.71-2.24,4-1.5,8-2.88,11.79-4.59l6.59-2.94c15.8-7.1,30.79-17.22,41.93-30.63.17-.2.29-.17.36.08a6.67,6.67,0,0,1,.2,2.77L255.93,343l-.19,62.81a1.5,1.5,0,0,0,1.5,1.5q43.83.09,87.4,0c1.55,0,3.08.06,4.6.2a1.28,1.28,0,0,0,1.39-1.27V178l-.06-42.2Zm-54.47,54.31a.36.36,0,0,0,.11-.21.28.28,0,0,0,.1.21s0,.05,0,.05h-.17S296.14,161,296.16,160.94Zm.11-.31v.09A.14.14,0,0,1,296.27,160.63Zm47.34-54.43a0,0,0,1,1,0,0l-.23,0h-.11C343.42,106.18,343.52,106.16,343.61,106.2Z"/><path class="cls-1" d="M431.29,179.29V240.8h60V179.29h26.1V310.7h-26.1V263.54h-60V310.7H405V179.29Z"/><path class="cls-1" d="M570.35,285.72l-11.19,25H531l62.07-131.6h14.35L669.7,310.7H641.37l-11.19-25Zm51.26-21.43-21.44-49.77-21.25,49.77Zm19.94-124L604.27,170.9H589.92l22.93-32.81Z"/><path class="cls-1" d="M795.52,271.74c0,25.35-16.41,39-48.09,39H683.3V179.29h64.5c23.67,0,36,10.44,36,30.75,0,14-5.77,23.3-16,27.22C784.52,240.8,795.52,252.54,795.52,271.74Zm-55.74-39c13.05,0,19.58-5.21,19.58-16.21,0-9.88-6.34-14.73-19.2-14.73H708.84v30.94Zm28.15,36.91c0-11.56-7.64-18.27-25.35-18.27H709.4v36.91h33.74C760.66,288.33,767.93,282,767.93,269.69Z"/><path class="cls-1" d="M840.81,179.29V310.7H814V179.29Z"/><path class="cls-1" d="M859.08,202.21V179.29H969.61v22.92H927.67V310.7H901V202.21Z"/><path class="cls-1" d="M994.22,285.72,983,310.7H954.89L1017,179.1h14.35l62.26,131.6h-28.33l-11.19-25Zm51.26-21.43L1024,214.52l-21.25,49.77Z"/><path class="cls-1" d="M1080,202.21V179.29H1190.5v22.92h-41.94V310.7H1121.9V202.21Z"/><path class="cls-1" d="M509.82,351.88c0-14.35,8.84-23.07,23.25-23.07,8.85,0,15.24,3.35,19.53,8.59l-6.89,5.88c-2.59-3.6-6.69-5.94-12.38-5.94-8.79,0-14.22,5.37-14.22,14.54s5.43,14.85,14.22,14.85c5.69,0,9.79-2.34,12.38-5.94l6.89,5.88c-4.29,5.18-10.36,8.46-19.53,8.46C518.66,375.13,509.82,366.22,509.82,351.88Z"/><path class="cls-1" d="M588.25,352c0-13.59,9.1-23.19,23.64-23.19,14,0,23.7,9.22,23.7,23.19,0,13.53-9.17,23.13-23.7,23.13C597.85,375.13,588.25,366,588.25,352Zm38,0c0-8.66-5.57-14.85-14.41-14.85-8.41,0-14.35,5.81-14.35,14.85,0,8.6,5.56,14.79,14.35,14.79C620.35,366.79,626.3,361,626.3,352Z"/><path class="cls-1" d="M683.87,329.69v36.53h23.64v8H674.89V329.69Z"/><path class="cls-1" d="M742.27,352c0-13.59,9.1-23.19,23.63-23.19,14,0,23.7,9.22,23.7,23.19,0,13.53-9.16,23.13-23.7,23.13C751.87,375.13,742.27,366,742.27,352Zm38,0c0-8.66-5.56-14.85-14.41-14.85-8.4,0-14.34,5.81-14.34,14.85,0,8.6,5.56,14.79,14.34,14.79C774.37,366.79,780.31,361,780.31,352Z"/><path class="cls-1" d="M874.67,374.25h-8.85V349.66l-12.38,17.13h-3.36l-12.32-17.06v24.52h-8.85V329.69h4.49l18.39,25.66,18.27-25.66h4.61Z"/><path class="cls-1" d="M953.61,361c0,8.6-5.57,13.21-16.31,13.21H915.56V329.69h21.87c8,0,12.2,3.54,12.2,10.43,0,4.74-2,7.9-5.44,9.23C949.88,350.55,953.61,354.53,953.61,361Zm-18.9-13.21c4.42,0,6.63-1.77,6.63-5.5,0-3.35-2.14-5-6.51-5H924.22v10.49Zm9.54,12.51c0-3.91-2.59-6.19-8.59-6.19H924.41v12.52h11.44C941.79,366.67,944.25,364.52,944.25,360.34Z"/><path class="cls-1" d="M1001.32,329.69v44.56h-9.1V329.69Z"/><path class="cls-1" d="M1052,365.78l-3.8,8.47h-9.54l21-44.62h4.86l21.11,44.62h-9.6l-3.8-8.47Zm17.38-7.27-7.27-16.87-7.21,16.87Z"/></svg>